<?xml version="1.0" encoding="utf-8"?>
<!-- Generator: Adobe Illustrator 25.0.0, SVG Export Plug-In . SVG Version: 6.00 Build 0)  -->
<svg version="1.1" id="Layer_1" xmlns="http://www.w3.org/2000/svg" xmlns:xlink="http://www.w3.org/1999/xlink" x="0px" y="0px"
	 viewBox="0 0 80 80" style="enable-background:new 0 0 80 80;" xml:space="preserve">
<style type="text/css">
	.st0{fill:#0976FF;}
</style>
<path class="st0" d="M72.5,6.6h-65c-3.7,0-6.6,3.1-6.6,6.9v36c0,3.8,3,6.9,6.6,6.9h20.2c0.6,0,1.2,0.3,1.5,0.9l7.9,14.3
	c1.3,2.3,4.4,2.3,5.7,0l7.9-14.3c0.3-0.6,0.9-0.9,1.5-0.9h20.2c3.7,0,6.6-3.1,6.6-6.9v-36C79.1,9.7,76.1,6.6,72.5,6.6z M13.8,42.4
	c0,0.5-0.5,0.9-1,0.9H9.5c-0.5,0-0.9-0.4-0.9-0.9v-3.3c0-0.5,0.4-0.9,0.9-0.9h3.3c0.5,0,0.9,0.4,0.9,0.9L13.8,42.4L13.8,42.4z
	 M13.7,32.4c0,0.5-0.5,0.9-1,0.9H9.5c-0.5,0-0.9-0.4-0.9-0.9V29c0-0.5,0.4-0.9,0.9-0.9h3.3c0.5,0,0.9,0.4,0.9,0.9V32.4L13.7,32.4z
	 M13.8,22.3c0,0.5-0.5,0.9-1,0.9H9.5c-0.5,0-0.9-0.4-0.9-0.9V19c0-0.5,0.4-0.9,0.9-0.9h3.3c0.5,0,0.9,0.4,0.9,0.9L13.8,22.3
	L13.8,22.3z M45.6,43.3H20.1c-1.4,0-2.6-1.1-2.6-2.6c0-1.4,1.1-2.6,2.6-2.6h25.5c1.4,0,2.6,1.1,2.6,2.6C48.2,42.2,47,43.3,45.6,43.3
	z M45.6,33.3H20.1c-1.4,0-2.6-1.1-2.6-2.6c0-1.4,1.1-2.6,2.6-2.6h25.5c1.4,0,2.6,1.1,2.6,2.6C48.2,32.1,47,33.3,45.6,33.3z
	 M45.6,23.2H20.1c-1.4,0-2.6-1.1-2.6-2.6s1.1-2.6,2.6-2.6h25.5c1.4,0,2.6,1.1,2.6,2.6S47,23.2,45.6,23.2z M65.5,42.6
	c-0.5,0.5-1.1,0.7-1.9,0.7c-0.8,0-1.4-0.2-1.9-0.7S61,41.5,61,40.7c0-0.7,0.2-1.4,0.7-1.8c0.5-0.5,1.1-0.7,1.9-0.7
	c0.8,0,1.5,0.2,1.9,0.7c0.5,0.5,0.7,1.1,0.7,1.8C66.1,41.4,65.9,42.1,65.5,42.6z M70.8,26.5c-0.1,0.3-0.3,0.6-0.5,0.9
	c-0.2,0.4-0.5,0.7-0.7,1.1c-0.4,0.5-0.8,0.9-1.4,1.5c-0.7,0.7-1.3,1.3-1.7,1.8c-0.4,0.5-0.7,1.1-0.9,1.5c-0.2,0.5-0.3,1-0.4,1.6
	c0,0.3-0.2,0.6-0.4,0.8c-0.2,0.2-0.6,0.3-1,0.3s-0.8-0.1-1-0.4c-0.2-0.3-0.4-0.7-0.4-1.2c0-0.7,0.1-1.4,0.3-2s0.5-1.3,0.9-1.9
	c0.4-0.7,0.9-1.3,1.6-2.1c0.5-0.6,0.9-1.1,1.2-1.5c0.3-0.4,0.5-0.8,0.6-1.2c0.1-0.4,0.2-0.8,0.2-1.2c0-0.8-0.3-1.4-0.8-1.8
	C65.8,22.3,65,22,64,22c-0.9,0-1.7,0.1-2.5,0.4s-1.5,0.6-2.3,1c-0.5,0.3-1,0.4-1.4,0.4s-0.7-0.2-1-0.4c-0.3-0.3-0.4-0.6-0.5-0.9
	c-0.1-0.4,0-0.8,0.2-1.2c0.2-0.4,0.5-0.8,1-1.1c1-0.6,2.1-1.1,3.3-1.5c1.2-0.3,2.4-0.5,3.5-0.5c1.5,0,2.8,0.2,3.9,0.7s2,1.2,2.6,2
	l0,0c0.9,1.4,1,3.5,0.4,4.8C71,26,70.9,26.3,70.8,26.5z"/>
</svg>
