<svg width="128" height="129" viewBox="0 0 128 129" fill="none" xmlns="http://www.w3.org/2000/svg">
<g clip-path="url(#clip0_1334_2122)">
<path d="M109.287 0.5H18.2146C8.15493 0.5 0 8.65493 0 18.7146V109.787C0 119.847 8.15493 128.002 18.2146 128.002H109.287C119.347 128.002 127.502 119.847 127.502 109.787V18.7146C127.502 8.65493 119.347 0.5 109.287 0.5Z" fill="#4A5FE0"/>
<path d="M48.958 77.9643L90.6975 53.8793C94.5564 51.6525 99.4896 52.9759 101.716 56.8343L105.748 63.8215L70.9949 83.8747C63.2776 88.3278 53.4111 85.6816 48.958 77.9643Z" fill="white"/>
<path d="M79.2023 50.9074L37.4626 74.9924C33.6038 77.2187 28.6706 75.8959 26.444 72.0369L22.4124 65.0502L57.1649 44.9969C64.8827 40.5436 74.7487 43.1899 79.2023 50.9074Z" fill="white"/>
</g>
<defs>
<clipPath id="clip0_1334_2122">
<rect width="128" height="128" fill="white" transform="translate(0 0.5)"/>
</clipPath>
</defs>
</svg>
