<svg xmlns="http://www.w3.org/2000/svg" viewBox="0 0 597.33 597.33"><defs><style>.cls-1{fill:none;}.cls-2{opacity:0.2;}.cls-3{fill:#fff;}.cls-4{fill:#24a1ff;}.cls-5{fill:#31baff;}.cls-6{fill:#0092ff;}.cls-7{fill:#b6e0ff;stroke:#24a1ff;stroke-miterlimit:10;stroke-width:13.55px;}</style></defs><title>PDF logo for WPFF v1.0_1</title><g id="Layer_2" data-name="Layer 2"><g id="Layer_7" data-name="Layer 7"><rect class="cls-1" width="597.33" height="597.33"/><path class="cls-2" d="M472.08,155.69a23.34,23.34,0,0,0-4.78-6.9L395,76.5a23.68,23.68,0,0,0-5.68-4.15v0a23.48,23.48,0,0,0-11-2.72H150.94a31.07,31.07,0,0,0-31.07,31.08V501a31.08,31.08,0,0,0,31.07,31.08H443.12A31.08,31.08,0,0,0,474.2,501V165.44A23.52,23.52,0,0,0,472.08,155.69Z"/><path class="cls-3" d="M167.2,511.75A25.23,25.23,0,0,1,142,486.54V86.23A25.23,25.23,0,0,1,167.2,61H394.63a17.66,17.66,0,0,1,7,1.44l25.73,38.47a22,22,0,0,1-3.6,10c-1.59,2.7-3.56,6.06-1.77,9.91,1.52,3.3,4.87,4.6,8.28,5.35.57.75,1.29,1.73,1.83,2.47a41,41,0,0,0,4.41,5.51l5.69,8V511.75Z"/><path class="cls-4" d="M394.63,66.9a11.84,11.84,0,0,1,3.18.44l23.39,35a19.59,19.59,0,0,1-2.52,5.61c-1.79,3-5.12,8.7-2,15.35,2.22,4.81,6.49,7,10.15,8.06.19.27.38.52.55.75a52.09,52.09,0,0,0,4.57,5.74l4.4,6.17V505.87H167.2a19.35,19.35,0,0,1-19.33-19.33V86.23A19.35,19.35,0,0,1,167.2,66.9H394.63m0-11.74H167.2a31.07,31.07,0,0,0-31.07,31.07V486.54a31.08,31.08,0,0,0,31.07,31.08H448.05V140.25L440.75,130c-.78,0-6.7-9.1-7.47-9.23-13.8-2.41,0-5.6,0-21.51L405.6,57.87a23.59,23.59,0,0,0-11-2.71Z"/><path class="cls-5" d="M433.28,140.14V517.62h26.1a31.09,31.09,0,0,0,31.08-31.08V151a23.6,23.6,0,0,0-2.12-9.76L487,140.14Z"/><path class="cls-6" d="M483.56,134.34,411.28,62.05a23.76,23.76,0,0,0-6.9-4.77v52.88a31.07,31.07,0,0,0,31.08,31.07h52.88A23.62,23.62,0,0,0,483.56,134.34Z"/><rect class="cls-7" x="78.88" y="149.28" width="313.2" height="158.17" rx="29.39"/><rect class="cls-6" x="221.92" y="411.41" width="142.77" height="142.77" rx="28.95"/><path class="cls-6" d="M169.48,243.86h10.44c17.76,0,33.94-9,33.94-29.76,0-21.4-15.66-28.19-33.94-28.19H147v84.85h22.46Zm0-40.2h9.4c8.36,0,13.06,2.87,13.06,10.44s-4.18,12-13.06,12h-9.4Z"/><path class="cls-6" d="M296.29,227.94c0-30-17.76-42-43.6-42H227.63v84.85H254C278.54,270.76,296.29,258,296.29,227.94Zm-46.2,24.8V203.92h1.3c12.28,0,21.94,4.17,21.94,24s-9.66,24.81-21.94,24.81Z"/><polygon class="cls-6" points="333.83 239.7 362.03 239.7 362.03 220.9 333.83 220.9 333.83 204.72 366.72 204.72 366.72 185.91 311.38 185.91 311.38 270.76 333.83 270.76 333.83 239.7"/><rect class="cls-6" x="99.65" y="247.05" width="25.09" height="25.09"/><path class="cls-3" d="M281.56,502.41H324a0,0,0,0,1,0,0v1.14A18.94,18.94,0,0,1,305,522.49H262.62a0,0,0,0,1,0,0v-1.14a18.94,18.94,0,0,1,18.94-18.94Z"/><path class="cls-3" d="M268.86,472.75h67.62a0,0,0,0,1,0,0v1.35a18.73,18.73,0,0,1-18.73,18.73H250.13a0,0,0,0,1,0,0v-1.35a18.73,18.73,0,0,1,18.73-18.73Z"/><path class="cls-3" d="M268.86,443.09h67.62a0,0,0,0,1,0,0v1.35a18.73,18.73,0,0,1-18.73,18.73H250.13a0,0,0,0,1,0,0v-1.35A18.73,18.73,0,0,1,268.86,443.09Z"/></g></g></svg>