<?xml version="1.0" encoding="UTF-8"?>
<svg xmlns="http://www.w3.org/2000/svg" xmlns:xlink="http://www.w3.org/1999/xlink" width="128px" height="128px" viewBox="0 0 128 128" version="1.1">
<g id="surface1">
<path style=" stroke:none;fill-rule:nonzero;fill:rgb(3.137255%,61.56863%,100%);fill-opacity:1;" d="M 12.800781 0 L 115.199219 0 C 122.269531 0 128 5.730469 128 12.800781 L 128 115.199219 C 128 122.269531 122.269531 128 115.199219 128 L 12.800781 128 C 5.730469 128 0 122.269531 0 115.199219 L 0 12.800781 C 0 5.730469 5.730469 0 12.800781 0 Z M 12.800781 0 "/>
<path style=" stroke:none;fill-rule:nonzero;fill:rgb(100%,100%,100%);fill-opacity:1;" d="M 17.359375 45.664062 C 17.359375 35.59375 25.523438 27.429688 35.597656 27.429688 L 107.835938 27.429688 C 107.835938 37.5 99.671875 45.664062 89.597656 45.664062 Z M 17.359375 45.664062 "/>
<path style=" stroke:none;fill-rule:nonzero;fill:rgb(100%,100%,100%);fill-opacity:1;" d="M 17.359375 74.03125 C 17.359375 63.960938 25.523438 55.796875 35.597656 55.796875 L 107.835938 55.796875 C 107.835938 65.867188 99.671875 74.03125 89.597656 74.03125 Z M 17.359375 74.03125 "/>
<path style=" stroke:none;fill-rule:nonzero;fill:rgb(100%,100%,100%);fill-opacity:1;" d="M 31.433594 102.398438 C 31.433594 92.328125 39.601562 84.164062 49.671875 84.164062 L 91.75 84.164062 C 91.75 94.234375 83.585938 102.398438 73.515625 102.398438 Z M 31.433594 102.398438 "/>
</g>
</svg>
