<?xml version="1.0" encoding="UTF-8" standalone="no"?><!DOCTYPE svg PUBLIC "-//W3C//DTD SVG 1.1//EN" "http://www.w3.org/Graphics/SVG/1.1/DTD/svg11.dtd"><svg width="100%" height="100%" viewBox="0 0 300 300" version="1.1" xmlns="http://www.w3.org/2000/svg" xmlns:xlink="http://www.w3.org/1999/xlink" xml:space="preserve" xmlns:serif="http://www.serif.com/" style="fill-rule:evenodd;clip-rule:evenodd;stroke-linejoin:round;stroke-miterlimit:2;"><path d="M300,30c0,-16.557 -13.443,-30 -30,-30l-240,0c-16.557,0 -30,13.443 -30,30l0,240c0,16.557 13.443,30 30,30l240,0c16.557,0 30,-13.443 30,-30l0,-240Z" style="fill:#c716c1;"/><path d="M165,25c0,-0 -80.084,21.458 -119.113,31.916c-12.32,3.301 -20.887,14.466 -20.887,27.221c0,3.784 0,6.536 0,6.536c0,0 72.08,-19.314 112.8,-30.225c16.044,-4.298 27.2,-18.837 27.2,-35.447c0,-0.001 0,-0.001 0,-0.001Z" style="fill:#fff;"/><path d="M111.266,83.11c0,-0 -39.848,10.677 -65.379,17.518c-12.32,3.301 -20.887,14.466 -20.887,27.221c0,3.784 0,6.536 0,6.536c0,0 33.783,-9.052 59.066,-15.827c16.044,-4.299 27.2,-18.838 27.2,-35.447c0,-0.001 0,-0.001 0,-0.001Z" style="fill:#fff;"/><path d="M96.429,150c-11.775,0 -21.429,9.66 -21.429,21.442l0,82.116c0,11.782 9.654,21.442 21.429,21.442l157.142,0c11.775,0 21.429,-9.66 21.429,-21.442l0,-82.116c0,-11.782 -9.654,-21.442 -21.429,-21.442l-157.142,0Zm-0,14.295l157.142,-0c0.503,-0 0.893,0.167 1.34,0.279l-79.911,45.33l-79.911,-45.33c0.447,-0.112 0.837,-0.279 1.34,-0.279Zm-7.143,13.625l85.714,49.406l85.714,-49.406l0,75.638c0,4.02 -3.125,7.147 -7.143,7.147l-157.142,0c-4.018,0 -7.143,-3.127 -7.143,-7.147l-0,-75.638Z" style="fill:#fff;fill-opacity:0.7;fill-rule:nonzero;"/></svg>