<svg width="19" height="21" viewBox="0 0 19 21" fill="none" xmlns="http://www.w3.org/2000/svg">
<circle cx="9.51291" cy="11.9267" r="8.78049" fill="#ADDCCF"/>
<circle cx="9.99924" cy="8.99997" r="8.53659" fill="#F9F9F9" stroke="#1E1037" stroke-width="0.487805"/>
<path fill-rule="evenodd" clip-rule="evenodd" d="M13.4147 8.51205H10.4879V5.58522C10.4879 5.31546 10.2694 5.09741 10.0001 5.09741C9.73083 5.09741 9.51229 5.31546 9.51229 5.58522V8.51205H6.58546C6.31619 8.51205 6.09766 8.7301 6.09766 8.99985C6.09766 9.26961 6.31619 9.48766 6.58546 9.48766H9.51229V12.4145C9.51229 12.6842 9.73083 12.9023 10.0001 12.9023C10.2694 12.9023 10.4879 12.6842 10.4879 12.4145V9.48766H13.4147C13.684 9.48766 13.9025 9.26961 13.9025 8.99985C13.9025 8.7301 13.684 8.51205 13.4147 8.51205" fill="#1E1037"/>
</svg>
